<svg width="18" height="18" viewBox="0 0 18 18" fill="none" xmlns="http://www.w3.org/2000/svg">
<path d="M3.87463 7.61505C3.80761 6.74386 4.49644 6 5.3702 6H12.6305C13.5044 6 14.1932 6.74385 14.1262 7.61505L13.6069 14.365C13.5468 15.1465 12.8951 15.75 12.1113 15.75H5.88943C5.10563 15.75 4.45397 15.1465 4.39385 14.365L3.87463 7.61505Z" stroke="#CDCDCD"/>
<path d="M14.625 3.75H3.375" stroke="#CDCDCD" stroke-linecap="round"/>
<path d="M7.5 2.25C7.5 1.83579 7.83577 1.5 8.25 1.5H9.75C10.1642 1.5 10.5 1.83579 10.5 2.25V3.75H7.5V2.25Z" stroke="#CDCDCD"/>
<path d="M10.5 9V12.75" stroke="#CDCDCD" stroke-linecap="round"/>
<path d="M7.5 9V12.75" stroke="#CDCDCD" stroke-linecap="round"/>
</svg>
